<?xml version="1.0"?>
<svg xmlns="http://www.w3.org/2000/svg" xmlns:xlink="http://www.w3.org/1999/xlink" version="1.1" id="Capa_1" x="0px" y="0px" viewBox="0 0 512 512" style="enable-background:new 0 0 512 512;" xml:space="preserve" width="512px" height="512px" class=""><g><g><g style="opacity:0.4;">
	<path d="M192,379.313L91.36,479.953c-6.224,6.272-16.352,6.32-22.624,0.096   c-3.008-2.992-4.72-7.056-4.736-11.296v-89.44H192z" data-original="#FFDA68" class="active-path" data-old_color="#FFDA68" fill="#26C6DA"/>
</g><g style="opacity:0.4;">
	<path d="M485.28,51.633L400,129.073v116.32l85.28,77.44c6.56,5.92,16.672,5.408,22.592-1.152   c2.608-2.896,4.08-6.624,4.128-10.528V63.473c-0.016-8.832-7.2-15.984-16.032-15.968C492.016,47.521,488.208,48.993,485.28,51.633z   " data-original="#FFDA68" class="active-path" data-old_color="#FFDA68" fill="#26C6DA"/>
</g><path d="M304,27.313H64c-35.344,0-64,28.656-64,64v192c0,35.344,28.656,64,64,64h240  c35.344,0,64-28.656,64-64v-192C368,55.969,339.344,27.313,304,27.313z M192,267.313h-80c-17.68,0-32-14.32-32-32s14.32-32,32-32h80  c17.68,0,32,14.32,32,32S209.68,267.313,192,267.313z M256,171.313H112c-17.68,0-32-14.32-32-32s14.32-32,32-32h144  c17.68,0,32,14.32,32,32S273.68,171.313,256,171.313z" data-original="#FFDA68" class="active-path" data-old_color="#FFDA68" fill="#26C6DA"/></g></g> </svg>
