<?xml version="1.0"?>
<svg xmlns="http://www.w3.org/2000/svg" xmlns:xlink="http://www.w3.org/1999/xlink" version="1.1" id="Capa_1" x="0px" y="0px" viewBox="0 0 512 512" style="enable-background:new 0 0 512 512;" xml:space="preserve" width="512px" height="512px" class=""><g transform="matrix(1 0 0 1 0 0)"><circle style="fill:#26C6DA" cx="256" cy="256" r="256" data-original="#2196F3" class="" data-old_color="#2196F3"/><path style="fill:#FFFFFF" d="M384,308.928c-27.616,0-53.952-6.016-78.24-17.888c-3.808-1.824-8.224-2.112-12.256-0.736  c-4.032,1.408-7.328,4.352-9.184,8.16l-11.52,23.84c-34.56-19.84-63.232-48.544-83.104-83.104l23.872-11.52  c3.84-1.856,6.752-5.152,8.16-9.184c1.376-4.032,1.12-8.448-0.736-12.256c-11.904-24.256-17.92-50.592-17.92-78.24  c0-8.832-7.168-16-16-16H128c-8.832,0-16,7.168-16,16c0,149.984,122.016,272,272,272c8.832,0,16-7.168,16-16v-59.072  C400,316.096,392.832,308.928,384,308.928z" data-original="#FAFAFA" class="active-path" data-old_color="#FAFAFA"/></g> </svg>
