<?xml version="1.0"?>
<svg xmlns="http://www.w3.org/2000/svg" xmlns:xlink="http://www.w3.org/1999/xlink" version="1.1" id="Capa_1" x="0px" y="0px" width="512px" height="512px" viewBox="0 0 565.512 565.512" style="enable-background:new 0 0 565.512 565.512;" xml:space="preserve"><g><g>
	<g>
		<path d="M86.999,239.255v43.507c0,37.986,9.639,72.216,28.874,102.707l31.788-31.787c-11.432-21.311-17.161-44.945-17.161-70.914    v-43.507c0-5.881-2.16-10.979-6.457-15.294c-4.309-4.302-9.406-6.45-15.294-6.45c-5.894,0-10.991,2.148-15.294,6.45    C89.146,228.276,86.999,233.374,86.999,239.255z" data-original="#000000" class="active-path" data-old_color="#000000" fill="#F44336"/>
		<path d="M391.512,108.758c0-29.908-10.655-55.508-31.946-76.812C338.262,10.648,312.661,0,282.753,0s-55.515,10.648-76.806,31.94    C184.649,53.25,174,78.844,174,108.752v174.01c0,13.537,2.295,26.138,6.659,37.914L391.505,109.83v-1.071H391.512z" data-original="#000000" class="active-path" data-old_color="#000000" fill="#F44336"/>
		<path d="M359.565,359.574c21.291-21.291,31.946-46.904,31.946-76.812v-43.103L245.923,385.242    c11.469,4.1,23.709,6.266,36.83,6.266C312.661,391.514,338.262,380.879,359.565,359.574z" data-original="#000000" class="active-path" data-old_color="#000000" fill="#F44336"/>
		<path d="M456.763,217.511c-5.894,0-10.991,2.148-15.294,6.451c-4.309,4.314-6.456,9.412-6.456,15.293v43.507    c0,41.921-14.902,77.779-44.688,107.572c-29.798,29.791-65.655,44.682-107.571,44.682c-25.576,0-48.88-5.576-69.939-16.664    l-31.861,31.859c23.85,14.67,50.521,23.68,80.05,26.941v44.871H174c-5.894,0-10.992,2.137-15.294,6.451    c-4.309,4.303-6.457,9.4-6.457,15.293c0,5.881,2.148,10.98,6.457,15.295c4.302,4.301,9.4,6.449,15.294,6.449h217.511    c5.887,0,10.985-2.148,15.294-6.449c4.302-4.314,6.456-9.414,6.456-15.295c0-5.893-2.154-10.99-6.456-15.293    c-4.309-4.314-9.407-6.451-15.294-6.451h-87.009v-44.871c49.162-5.43,90.454-26.672,123.882-63.723    c33.415-37.037,50.129-80.594,50.129-130.673v-43.507c0-5.881-2.154-10.979-6.457-15.294    C467.748,219.659,462.65,217.511,456.763,217.511z" data-original="#000000" class="active-path" data-old_color="#000000" fill="#F44336"/>
		<path d="M478.379,44.603l-86.867,86.867l-204.01,204.005l-31.659,31.658l-31.15,31.15l-80.833,80.84    c-11.953,11.945-11.953,31.322,0,43.268c5.967,5.979,13.807,8.967,21.634,8.967c7.827,0,15.667-2.988,21.634-8.967l80.895-80.895    l31.236-31.236l31.689-31.689l160.564-160.558L521.653,87.871c11.952-11.946,11.952-31.322,0-43.268    C509.707,32.65,490.319,32.65,478.379,44.603z" data-original="#000000" class="active-path" data-old_color="#000000" fill="#F44336"/>
	</g>
</g></g> </svg>
